<svg width="46" height="24" viewBox="0 0 46 24" fill="none" xmlns="http://www.w3.org/2000/svg">
<g filter="url(#filter0_i_251_24)">
<rect width="46" height="24" rx="12" fill="#282828"/>
</g>
<g filter="url(#filter1_i_251_24)">
<circle cx="12" cy="12" r="10" fill="#060606"/>
</g>
<path d="M11.69 7C11.3216 7.34331 11.0261 7.75731 10.8211 8.21731C10.6161 8.67731 10.5059 9.17387 10.497 9.67739C10.4882 10.1809 10.5808 10.681 10.7694 11.148C10.958 11.6149 11.2387 12.0391 11.5948 12.3952C11.9509 12.7513 12.3751 13.032 12.842 13.2206C13.309 13.4092 13.8091 13.5018 14.3126 13.493C14.8161 13.4841 15.3127 13.3739 15.7727 13.1689C16.2327 12.9639 16.6467 12.6684 16.99 12.3C16.831 14.9175 14.658 16.9905 12.0005 16.9905C9.2385 16.9905 7 14.752 7 11.9905C7 9.333 9.073 7.16 11.69 7Z" fill="white"/>
<g filter="url(#filter2_i_251_24)">
<path d="M33 7C33.1105 7 33.2165 7.0439 33.2946 7.12204C33.3728 7.20018 33.4167 7.30616 33.4167 7.41667V8.25C33.4167 8.36051 33.3728 8.46649 33.2946 8.54463C33.2165 8.62277 33.1105 8.66667 33 8.66667C32.8895 8.66667 32.7835 8.62277 32.7054 8.54463C32.6272 8.46649 32.5833 8.36051 32.5833 8.25V7.41667C32.5833 7.30616 32.6272 7.20018 32.7054 7.12204C32.7835 7.0439 32.8895 7 33 7ZM28 12C28 11.8895 28.0439 11.7835 28.122 11.7054C28.2002 11.6272 28.3062 11.5833 28.4167 11.5833H29.25C29.3605 11.5833 29.4665 11.6272 29.5446 11.7054C29.6228 11.7835 29.6667 11.8895 29.6667 12C29.6667 12.1105 29.6228 12.2165 29.5446 12.2946C29.4665 12.3728 29.3605 12.4167 29.25 12.4167H28.4167C28.3062 12.4167 28.2002 12.3728 28.122 12.2946C28.0439 12.2165 28 12.1105 28 12ZM36.3333 12C36.3333 11.8895 36.3772 11.7835 36.4554 11.7054C36.5335 11.6272 36.6395 11.5833 36.75 11.5833H37.5833C37.6938 11.5833 37.7998 11.6272 37.878 11.7054C37.9561 11.7835 38 11.8895 38 12C38 12.1105 37.9561 12.2165 37.878 12.2946C37.7998 12.3728 37.6938 12.4167 37.5833 12.4167H36.75C36.6395 12.4167 36.5335 12.3728 36.4554 12.2946C36.3772 12.2165 36.3333 12.1105 36.3333 12ZM36.5354 8.46458C36.6135 8.54272 36.6574 8.64868 36.6574 8.75917C36.6574 8.86965 36.6135 8.97561 36.5354 9.05375L35.9462 9.64292C35.8677 9.71882 35.7624 9.76081 35.6532 9.75986C35.5439 9.75891 35.4394 9.71509 35.3622 9.63784C35.2849 9.56059 35.2411 9.45608 35.2401 9.34683C35.2392 9.23759 35.2812 9.13233 35.3571 9.05375L35.9462 8.46458C36.0244 8.38647 36.1303 8.34259 36.2408 8.34259C36.3513 8.34259 36.4573 8.38647 36.5354 8.46458ZM29.4646 8.46458C29.5427 8.38647 29.6487 8.34259 29.7592 8.34259C29.8697 8.34259 29.9756 8.38647 30.0537 8.46458L30.6429 9.05375C30.6836 9.09194 30.7163 9.13793 30.7389 9.18898C30.7615 9.24003 30.7736 9.2951 30.7745 9.35092C30.7754 9.40675 30.7651 9.46218 30.7442 9.51394C30.7232 9.5657 30.6921 9.61272 30.6526 9.65221C30.6132 9.6917 30.5662 9.72286 30.5144 9.74384C30.4627 9.76481 30.4073 9.77517 30.3514 9.7743C30.2956 9.77344 30.2405 9.76136 30.1895 9.73879C30.1384 9.71622 30.0924 9.68362 30.0542 9.64292L29.4646 9.05417C29.3865 8.97603 29.3426 8.87007 29.3426 8.75958C29.3426 8.6491 29.3865 8.54272 29.4646 8.46458ZM30.9167 15.3333C30.9167 15.2228 30.9606 15.1168 31.0387 15.0387C31.1168 14.9606 31.2228 14.9167 31.3333 14.9167H34.6667C34.7772 14.9167 34.8832 14.9606 34.9613 15.0387C35.0394 15.1168 35.0833 15.2228 35.0833 15.3333C35.0833 15.4438 35.0394 15.5498 34.9613 15.628C34.8832 15.7061 34.7772 15.75 34.6667 15.75H31.3333C31.2228 15.75 31.1168 15.7061 31.0387 15.628C30.9606 15.5498 30.9167 15.4438 30.9167 15.3333ZM36.3333 13.6667H35.3929C35.7347 13.1782 35.9176 12.5962 35.9167 12C35.9167 10.3908 34.6092 9.08333 33 9.08333C31.3908 9.08333 30.0833 10.3908 30.0833 12C30.0833 12.6179 30.2746 13.1937 30.6029 13.6667H29.6667C29.5562 13.6667 29.4502 13.7106 29.372 13.7887C29.2939 13.8668 29.25 13.9728 29.25 14.0833C29.25 14.1938 29.2939 14.2998 29.372 14.378C29.4502 14.4561 29.5562 14.5 29.6667 14.5H36.3333C36.4438 14.5 36.5498 14.4561 36.628 14.378C36.7061 14.2998 36.75 14.1938 36.75 14.0833C36.75 13.9728 36.7061 13.8668 36.628 13.7887C36.5498 13.7106 36.4438 13.6667 36.3333 13.6667Z" fill="#626262"/>
</g>
<defs>
<filter id="filter0_i_251_24" x="0" y="0" width="46" height="24" filterUnits="userSpaceOnUse" color-interpolation-filters="sRGB">
<feFlood flood-opacity="0" result="BackgroundImageFix"/>
<feBlend mode="normal" in="SourceGraphic" in2="BackgroundImageFix" result="shape"/>
<feColorMatrix in="SourceAlpha" type="matrix" values="0 0 0 0 0 0 0 0 0 0 0 0 0 0 0 0 0 0 127 0" result="hardAlpha"/>
<feOffset/>
<feGaussianBlur stdDeviation="1.5"/>
<feComposite in2="hardAlpha" operator="arithmetic" k2="-1" k3="1"/>
<feColorMatrix type="matrix" values="0 0 0 0 0 0 0 0 0 0 0 0 0 0 0 0 0 0 0.61 0"/>
<feBlend mode="normal" in2="shape" result="effect1_innerShadow_251_24"/>
</filter>
<filter id="filter1_i_251_24" x="2" y="2" width="20" height="20" filterUnits="userSpaceOnUse" color-interpolation-filters="sRGB">
<feFlood flood-opacity="0" result="BackgroundImageFix"/>
<feBlend mode="normal" in="SourceGraphic" in2="BackgroundImageFix" result="shape"/>
<feColorMatrix in="SourceAlpha" type="matrix" values="0 0 0 0 0 0 0 0 0 0 0 0 0 0 0 0 0 0 127 0" result="hardAlpha"/>
<feOffset/>
<feGaussianBlur stdDeviation="2.5"/>
<feComposite in2="hardAlpha" operator="arithmetic" k2="-1" k3="1"/>
<feColorMatrix type="matrix" values="0 0 0 0 1 0 0 0 0 1 0 0 0 0 1 0 0 0 0.11 0"/>
<feBlend mode="normal" in2="shape" result="effect1_innerShadow_251_24"/>
</filter>
<filter id="filter2_i_251_24" x="28" y="7" width="10" height="8.75" filterUnits="userSpaceOnUse" color-interpolation-filters="sRGB">
<feFlood flood-opacity="0" result="BackgroundImageFix"/>
<feBlend mode="normal" in="SourceGraphic" in2="BackgroundImageFix" result="shape"/>
<feColorMatrix in="SourceAlpha" type="matrix" values="0 0 0 0 0 0 0 0 0 0 0 0 0 0 0 0 0 0 127 0" result="hardAlpha"/>
<feOffset/>
<feGaussianBlur stdDeviation="0.5"/>
<feComposite in2="hardAlpha" operator="arithmetic" k2="-1" k3="1"/>
<feColorMatrix type="matrix" values="0 0 0 0 0.0480769 0 0 0 0 0.0480769 0 0 0 0 0.0480769 0 0 0 0.41 0"/>
<feBlend mode="normal" in2="shape" result="effect1_innerShadow_251_24"/>
</filter>
</defs>
</svg>
